<svg width="20" height="20" viewBox="0 0 20 20" fill="none" xmlns="http://www.w3.org/2000/svg">
<path fill-rule="evenodd" clip-rule="evenodd" d="M9.19107 12.5007C9.65098 12.4834 10.0379 12.8421 10.0552 13.3021C10.0944 14.3389 10.1494 15.0956 10.2034 15.6382C10.2566 16.1725 10.5792 16.494 11.0289 16.549C11.5591 16.6138 12.307 16.6668 13.3334 16.6668C14.3598 16.6668 15.1078 16.6138 15.638 16.549C16.0874 16.494 16.4101 16.1724 16.4634 15.6379C16.5637 14.6308 16.6667 12.8908 16.6667 10.0002C16.6667 7.10948 16.5637 5.3695 16.4634 4.36239C16.4101 3.82794 16.0874 3.5063 15.638 3.45136C15.1078 3.38654 14.3598 3.33349 13.3334 3.33349C12.307 3.33349 11.5591 3.38654 11.0289 3.45135C10.5792 3.50632 10.2566 3.82781 10.2034 4.36214C10.1494 4.9047 10.0944 5.66144 10.0552 6.69827C10.0379 7.15817 9.65098 7.51693 9.19107 7.49957C8.73116 7.48221 8.3724 7.0953 8.38976 6.63539C8.42994 5.5712 8.4869 4.77969 8.54495 4.19692C8.667 2.97178 9.52117 1.95658 10.8266 1.797C11.4343 1.72272 12.2507 1.66683 13.3334 1.66683C14.4161 1.66683 15.2325 1.72272 15.8402 1.79701C17.1458 1.95661 17.9998 2.97229 18.1218 4.19718C18.2293 5.27573 18.3334 7.07389 18.3334 10.0002C18.3334 12.9264 18.2293 14.7246 18.1218 15.8031C17.9998 17.028 17.1458 18.0437 15.8402 18.2033C15.2325 18.2776 14.4161 18.3335 13.3334 18.3335C12.2507 18.3335 11.4343 18.2776 10.8266 18.2033C9.52117 18.0437 8.667 17.0285 8.54495 15.8034C8.4869 15.2206 8.42994 14.4291 8.38976 13.3649C8.3724 12.905 8.73116 12.5181 9.19107 12.5007Z" fill="#777E90"/>
<path fill-rule="evenodd" clip-rule="evenodd" d="M6.00576 12.3274C6.3312 12.6528 6.3312 13.1805 6.00576 13.5059C5.68032 13.8314 5.15269 13.8314 4.82725 13.5059L1.91058 10.5893C1.58514 10.2638 1.58514 9.73618 1.91058 9.41074L4.82725 6.49408C5.15269 6.16864 5.68032 6.16864 6.00576 6.49408C6.3312 6.81951 6.3312 7.34715 6.00576 7.67259L4.51168 9.16667H12.4998C12.9601 9.16667 13.3332 9.53976 13.3332 10C13.3332 10.4602 12.9601 10.8333 12.4998 10.8333L4.51168 10.8333L6.00576 12.3274Z" fill="#777E90"/>
</svg>
