<svg width="36" height="36" viewBox="0 0 36 36" fill="none" xmlns="http://www.w3.org/2000/svg">
<circle cx="18" cy="18" r="18" fill="url(#paint0_linear)"/>
<path d="M18.0005 7.21061C13.5768 7.21061 9.37609 6.81741 7.77158 10.932C7.10882 12.6314 7.20507 14.8385 7.20507 17.9987C7.20507 20.7718 7.11613 23.3781 7.77158 25.0641C9.37243 29.1812 13.6073 28.7867 17.998 28.7867C22.2341 28.7867 26.6017 29.2274 28.2257 25.0641C28.8897 23.3477 28.7922 21.1735 28.7922 17.9987C28.7922 13.7842 29.0249 11.0635 26.9794 9.02079C24.9082 6.95131 22.1074 7.21061 17.9956 7.21061H18.0005ZM17.0331 9.1547C26.2606 9.14009 27.435 8.11509 26.7869 22.3543C26.5566 27.3905 22.719 26.8378 18.0017 26.8378C9.40045 26.8378 9.15314 26.5919 9.15314 17.9938C9.15314 9.29591 9.83539 9.15957 17.0331 9.15226V9.1547ZM23.763 10.9454C23.0479 10.9454 22.468 11.5249 22.468 12.2394C22.468 12.954 23.0479 13.5335 23.763 13.5335C24.4782 13.5335 25.0581 12.954 25.0581 12.2394C25.0581 11.5249 24.4782 10.9454 23.763 10.9454ZM18.0005 12.4586C14.9389 12.4586 12.4572 14.9395 12.4572 17.9987C12.4572 21.0579 14.9389 23.5376 18.0005 23.5376C21.0621 23.5376 23.5425 21.0579 23.5425 17.9987C23.5425 14.9395 21.0621 12.4586 18.0005 12.4586ZM18.0005 14.4027C22.7579 14.4027 22.764 21.5947 18.0005 21.5947C13.2442 21.5947 13.2369 14.4027 18.0005 14.4027Z" fill="#F8F8FB"/>
<defs>
<linearGradient id="paint0_linear" x1="2.4171" y1="33.6546" x2="35.7736" y2="4.77931" gradientUnits="userSpaceOnUse">
<stop stop-color="#FFDD55"/>
<stop offset="0.5" stop-color="#FF543E"/>
<stop offset="1" stop-color="#C837AB"/>
</linearGradient>
</defs>
</svg>
