<svg width="20" height="20" viewBox="0 0 20 20" fill="none" xmlns="http://www.w3.org/2000/svg">
<path fill-rule="evenodd" clip-rule="evenodd" d="M15.8332 5.00016H4.1665C3.70627 5.00016 3.33317 5.37326 3.33317 5.8335V15.8335C3.33317 16.2937 3.70627 16.6668 4.1665 16.6668H15.8332C16.2934 16.6668 16.6665 16.2937 16.6665 15.8335V5.8335C16.6665 5.37326 16.2934 5.00016 15.8332 5.00016ZM4.1665 3.3335C2.78579 3.3335 1.6665 4.45278 1.6665 5.8335V15.8335C1.6665 17.2142 2.78579 18.3335 4.1665 18.3335H15.8332C17.2139 18.3335 18.3332 17.2142 18.3332 15.8335V5.8335C18.3332 4.45278 17.2139 3.3335 15.8332 3.3335H4.1665Z" fill="#777E91"/>
<path fill-rule="evenodd" clip-rule="evenodd" d="M8.33333 10C7.8731 10 7.5 10.3731 7.5 10.8333C7.5 11.2936 7.8731 11.6667 8.33333 11.6667H14.1667C14.6269 11.6667 15 11.2936 15 10.8333C15 10.3731 14.6269 10 14.1667 10H8.33333ZM5.83333 13.3333C5.3731 13.3333 5 13.7064 5 14.1667C5 14.6269 5.3731 15 5.83333 15H10.8333C11.2936 15 11.6667 14.6269 11.6667 14.1667C11.6667 13.7064 11.2936 13.3333 10.8333 13.3333H5.83333Z" fill="#777E91"/>
<path fill-rule="evenodd" clip-rule="evenodd" d="M5.83333 1.6665C5.3731 1.6665 5 2.0396 5 2.49984V5.83317C5 6.29341 5.3731 6.6665 5.83333 6.6665C6.29357 6.6665 6.66667 6.29341 6.66667 5.83317V2.49984C6.66667 2.0396 6.29357 1.6665 5.83333 1.6665ZM14.1667 1.6665C13.7064 1.6665 13.3333 2.0396 13.3333 2.49984V5.83317C13.3333 6.29341 13.7064 6.6665 14.1667 6.6665C14.6269 6.6665 15 6.29341 15 5.83317V2.49984C15 2.0396 14.6269 1.6665 14.1667 1.6665Z" fill="#777E91"/>
</svg>
