<svg xmlns:xlink="http://www.w3.org/1999/xlink" width="32" height="32" viewBox="0 0 18 18" fill="none" xmlns="http://www.w3.org/2000/svg"><path d="M9.00462 2.54339C11.11 2.54339 11.3593 2.55262 12.1872 2.58954C12.9567 2.62339 13.3723 2.75261 13.6493 2.8603C14.0156 3.00183 14.2803 3.17413 14.5542 3.44796C14.8312 3.72487 15.0005 3.9864 15.1421 4.35253C15.2498 4.62944 15.3791 5.04789 15.413 5.814C15.4499 6.64473 15.4591 6.89395 15.4591 8.99539C15.4591 11.0999 15.4499 11.3491 15.413 12.1768C15.3791 12.946 15.2498 13.3613 15.1421 13.6382C15.0005 14.0044 14.8281 14.269 14.5542 14.5428C14.2772 14.8197 14.0156 14.9889 13.6493 15.1305C13.3723 15.2382 12.9537 15.3674 12.1872 15.4012C11.3562 15.4381 11.1069 15.4474 9.00462 15.4474C6.89928 15.4474 6.64997 15.4381 5.82199 15.4012C5.0525 15.3674 4.63697 15.2382 4.35995 15.1305C3.99367 14.9889 3.72897 14.8166 3.45503 14.5428C3.17801 14.2659 3.00872 14.0044 2.86713 13.6382C2.7594 13.3613 2.63013 12.9429 2.59627 12.1768C2.55934 11.346 2.5501 11.0968 2.5501 8.99539C2.5501 6.89087 2.55934 6.64165 2.59627 5.814C2.63013 5.04481 2.7594 4.62944 2.86713 4.35253C3.00872 3.9864 3.18109 3.7218 3.45503 3.44796C3.73204 3.17105 3.99367 3.00183 4.35995 2.8603C4.63697 2.75261 5.05557 2.62339 5.82199 2.58954C6.64997 2.55262 6.89928 2.54339 9.00462 2.54339ZM9.00462 1.125C6.86542 1.125 6.59764 1.13423 5.75735 1.17115C4.92014 1.20807 4.34456 1.34345 3.84593 1.53729C3.32575 1.74035 2.8856 2.00803 2.44853 2.44801C2.00838 2.88491 1.7406 3.32489 1.53745 3.84179C1.34354 4.3433 1.20811 4.91558 1.17117 5.75247C1.13423 6.5955 1.125 6.86318 1.125 9.00154C1.125 11.1399 1.13423 11.4076 1.17117 12.2475C1.20811 13.0844 1.34354 13.6598 1.53745 14.1582C1.7406 14.6782 2.00838 15.1182 2.44853 15.5551C2.8856 15.992 3.32575 16.2627 3.84285 16.4627C4.34456 16.6565 4.91707 16.7919 5.75427 16.8288C6.59456 16.8658 6.86235 16.875 9.00154 16.875C11.1407 16.875 11.4085 16.8658 12.2488 16.8288C13.086 16.7919 13.6616 16.6565 14.1602 16.4627C14.6773 16.2627 15.1175 15.992 15.5545 15.5551C15.9916 15.1182 16.2625 14.6782 16.4626 14.1613C16.6565 13.6598 16.7919 13.0875 16.8288 12.2506C16.8658 11.4107 16.875 11.143 16.875 9.00462C16.875 6.86626 16.8658 6.59858 16.8288 5.75862C16.7919 4.92174 16.6565 4.34638 16.4626 3.84794C16.2686 3.32489 16.0009 2.88491 15.5607 2.44801C15.1236 2.01111 14.6835 1.74035 14.1664 1.54036C13.6647 1.34653 13.0922 1.21115 12.255 1.17423C11.4116 1.13423 11.1438 1.125 9.00462 1.125Z" fill="#FFFFFF"></path><path d="M9.00457 4.95557C6.76996 4.95557 4.95703 6.76779 4.95703 9.00152C4.95703 11.2353 6.76996 13.0475 9.00457 13.0475C11.2392 13.0475 13.0521 11.2353 13.0521 9.00152C13.0521 6.76779 11.2392 4.95557 9.00457 4.95557ZM9.00457 11.626C7.55484 11.626 6.37906 10.4507 6.37906 9.00152C6.37906 7.55236 7.55484 6.37704 9.00457 6.37704C10.4543 6.37704 11.6301 7.55236 11.6301 9.00152C11.6301 10.4507 10.4543 11.626 9.00457 11.626Z" fill="#FFFFFF"></path><path d="M14.1568 4.79564C14.1568 5.3187 13.732 5.74022 13.2117 5.74022C12.6884 5.74022 12.2666 5.31562 12.2666 4.79564C12.2666 4.27259 12.6914 3.85107 13.2117 3.85107C13.732 3.85107 14.1568 4.27567 14.1568 4.79564Z" fill="#FFFFFF"></path></svg>