<svg width="24" height="24" viewBox="0 0 24 24" fill="none" xmlns="http://www.w3.org/2000/svg">
<circle cx="12" cy="12" r="12" fill="url(#paint0_linear_19851_133758)"/>
<path fill-rule="evenodd" clip-rule="evenodd" d="M11.9993 4.66699C7.94926 4.66699 4.66602 7.95024 4.66602 12.0003C4.66602 16.0504 7.94926 19.3337 11.9993 19.3337C16.0494 19.3337 19.3327 16.0504 19.3327 12.0003C19.3327 7.95024 16.0494 4.66699 11.9993 4.66699ZM5.67464 11.667H8.83818C8.90503 9.64244 9.57094 8.00676 10.2335 6.86442C10.4935 6.41616 10.7538 6.04231 10.9791 5.74875C8.07328 6.21935 5.83019 8.66705 5.67464 11.667ZM8.85473 12.667H5.70068C5.99846 15.5135 8.18167 17.7988 10.979 18.2519C10.7538 17.9583 10.4935 17.5845 10.2335 17.1362C9.60769 16.0573 8.9789 14.5382 8.85473 12.667ZM9.8572 12.667H14.1415C14.0195 14.3198 13.4613 15.6671 12.9002 16.6345C12.583 17.1814 12.2664 17.6042 12.031 17.8882L11.9993 17.9262L11.9677 17.8882C11.7323 17.6042 11.4157 17.1814 11.0985 16.6345C10.5374 15.6671 9.97921 14.3198 9.8572 12.667ZM14.1599 11.667H9.83879C9.90508 9.86144 10.5002 8.39781 11.0985 7.36613C11.4157 6.81923 11.7323 6.39649 11.9677 6.11244L11.9993 6.07448L12.031 6.11244C12.2664 6.39649 12.583 6.81923 12.9002 7.36613C13.4985 8.39781 14.0936 9.86144 14.1599 11.667ZM15.144 12.667C15.0198 14.5382 14.391 16.0573 13.7652 17.1362C13.5052 17.5845 13.2449 17.9583 13.0197 18.2519C15.817 17.7988 18.0002 15.5135 18.298 12.667H15.144ZM18.3241 11.667H15.1605C15.0937 9.64244 14.4278 8.00676 13.7652 6.86442C13.5052 6.41616 13.2449 6.04232 13.0196 5.74875C15.9254 6.21935 18.1685 8.66705 18.3241 11.667Z" fill="white"/>
<defs>
<linearGradient id="paint0_linear_19851_133758" x1="12" y1="0" x2="12" y2="24" gradientUnits="userSpaceOnUse">
<stop stop-color="#FF82B4"/>
<stop offset="1" stop-color="#E10F82"/>
</linearGradient>
</defs>
</svg>
