<svg width="20" height="20" viewBox="0 0 20 20" fill="none" xmlns="http://www.w3.org/2000/svg">
<path fill-rule="evenodd" clip-rule="evenodd" d="M10 10.8332C6.77834 10.8332 4.16667 13.4448 4.16667 16.6665V18.3332C4.16667 18.7934 3.79357 19.1665 3.33333 19.1665C2.8731 19.1665 2.5 18.7934 2.5 18.3332V16.6665C2.5 12.5244 5.85786 9.1665 10 9.1665C14.1421 9.1665 17.5 12.5244 17.5 16.6665V18.3332C17.5 18.7934 17.1269 19.1665 16.6667 19.1665C16.2064 19.1665 15.8333 18.7934 15.8333 18.3332V16.6665C15.8333 13.4448 13.2217 10.8332 10 10.8332Z" fill="#777E90"/>
<path fill-rule="evenodd" clip-rule="evenodd" d="M10 9.16683C11.8409 9.16683 13.3333 7.67445 13.3333 5.8335C13.3333 3.99255 11.8409 2.50016 10 2.50016C8.15905 2.50016 6.66667 3.99255 6.66667 5.8335C6.66667 7.67445 8.15905 9.16683 10 9.16683ZM10 10.8335C12.7614 10.8335 15 8.59492 15 5.8335C15 3.07207 12.7614 0.833496 10 0.833496C7.23858 0.833496 5 3.07207 5 5.8335C5 8.59492 7.23858 10.8335 10 10.8335Z" fill="#777E90"/>
</svg>
