<svg width="20" height="20" viewBox="0 0 20 20" fill="none" xmlns="http://www.w3.org/2000/svg">
<path fill-rule="evenodd" clip-rule="evenodd" d="M10.0003 3.33332C8.37347 3.33332 6.87379 3.46749 5.67008 3.62647C4.58676 3.76954 3.76988 4.58643 3.6268 5.66974C3.46783 6.87346 3.33366 8.37313 3.33366 9.99999C3.33366 11.6269 3.46783 13.1265 3.6268 14.3302C3.76988 15.4136 4.58676 16.2304 5.67008 16.3735C6.87379 16.5325 8.37347 16.6667 10.0003 16.6667C11.6272 16.6667 13.1269 16.5325 14.3306 16.3735C15.4139 16.2304 16.2308 15.4136 16.3738 14.3302C16.5328 13.1265 16.667 11.6269 16.667 9.99999C16.667 8.37313 16.5328 6.87346 16.3738 5.66975C16.2308 4.58643 15.4139 3.76954 14.3306 3.62647C13.1269 3.46749 11.6272 3.33332 10.0003 3.33332ZM5.45186 1.97415C3.6212 2.21593 2.21626 3.62086 1.97449 5.45152C1.80827 6.71006 1.66699 8.28439 1.66699 9.99999C1.66699 11.7156 1.80827 13.2899 1.97449 14.5485C2.21626 16.3791 3.62119 17.7841 5.45186 18.0258C6.71039 18.192 8.28472 18.3333 10.0003 18.3333C11.7159 18.3333 13.2903 18.192 14.5488 18.0258C16.3795 17.7841 17.7844 16.3791 18.0262 14.5485C18.1924 13.2899 18.3337 11.7156 18.3337 9.99999C18.3337 8.28439 18.1924 6.71006 18.0262 5.45152C17.7844 3.62086 16.3795 2.21593 14.5488 1.97415C13.2903 1.80793 11.7159 1.66666 10.0003 1.66666C8.28472 1.66666 6.71039 1.80793 5.45186 1.97415Z" fill="#777E90"/>
<path d="M7.50051 9.16668C8.42098 9.16668 9.16718 8.42048 9.16718 7.50001C9.16718 6.57954 8.42098 5.83334 7.50051 5.83334C6.58003 5.83334 5.83384 6.57954 5.83384 7.50001C5.83384 8.42048 6.58003 9.16668 7.50051 9.16668Z" fill="#777E90"/>
<path d="M15.1016 10.5894L16.5969 12.0847C16.5453 12.8649 16.4699 13.5888 16.3869 14.2317L13.9231 11.7679C13.5977 11.4425 13.07 11.4425 12.7446 11.7679L10.9349 13.5776C9.95863 14.5539 8.37572 14.5539 7.39941 13.5776L7.25643 13.4346C6.93099 13.1092 6.40335 13.1092 6.07792 13.4346L4.07036 15.4422C3.8378 15.1268 3.6822 14.7484 3.62697 14.3303C3.59686 14.1022 3.56763 13.8636 3.54004 13.6155L4.89941 12.2561C5.87572 11.2798 7.45863 11.2798 8.43494 12.2561L8.57792 12.3991C8.90335 12.7245 9.43099 12.7245 9.75643 12.3991L11.5661 10.5894C12.5424 9.61311 14.1253 9.61311 15.1016 10.5894Z" fill="#777E90"/>
</svg>
