<svg width="20" height="20" viewBox="0 0 20 20" fill="none" xmlns="http://www.w3.org/2000/svg">
<path fill-rule="evenodd" clip-rule="evenodd" d="M11.3213 4.50099L10.664 3.6342C10.3306 3.19442 9.66943 3.19442 9.33596 3.6342L8.67872 4.50099C8.29662 5.0049 7.67239 5.26347 7.04589 5.17733L5.96823 5.02916C5.42147 4.95398 4.95398 5.42147 5.02916 5.96823L5.17733 7.04589C5.26347 7.67239 5.0049 8.29663 4.50099 8.67872L3.6342 9.33596C3.19442 9.66943 3.19442 10.3306 3.6342 10.664L4.50099 11.3213C5.0049 11.7034 5.26347 12.3276 5.17733 12.9541L5.02916 14.0318C4.95398 14.5785 5.42147 15.046 5.96823 14.9708L7.04589 14.8227C7.67239 14.7365 8.29662 14.9951 8.67872 15.499L9.33596 16.3658C9.66943 16.8056 10.3306 16.8056 10.664 16.3658L11.3213 15.499C11.7034 14.9951 12.3276 14.7365 12.9541 14.8227L14.0318 14.9708C14.5785 15.046 15.046 14.5785 14.9708 14.0318L14.8227 12.9541C14.7365 12.3276 14.9951 11.7034 15.499 11.3213L16.3658 10.664C16.8056 10.3306 16.8056 9.66943 16.3658 9.33596L15.499 8.67872C14.9951 8.29662 14.7365 7.67239 14.8227 7.04589L14.9708 5.96823C15.046 5.42147 14.5785 4.95398 14.0318 5.02916L12.9541 5.17733C12.3276 5.26347 11.7034 5.0049 11.3213 4.50099ZM11.9921 2.6272C10.9917 1.30786 9.0083 1.30786 8.00791 2.6272L7.35066 3.49399C7.33247 3.51798 7.30274 3.5303 7.27291 3.52619L6.19525 3.37802C4.55496 3.15249 3.15249 4.55496 3.37802 6.19525L3.52619 7.27291C3.5303 7.30274 3.51798 7.33247 3.49399 7.35066L2.6272 8.00791C1.30786 9.0083 1.30786 10.9917 2.6272 11.9921L3.49399 12.6493C3.51798 12.6675 3.5303 12.6972 3.52619 12.7271L3.37802 13.8047C3.15249 15.445 4.55496 16.8475 6.19525 16.622L7.27291 16.4738C7.30274 16.4697 7.33247 16.482 7.35066 16.506L8.00791 17.3728C9.0083 18.6921 10.9917 18.6921 11.9921 17.3728L12.6493 16.506C12.6675 16.482 12.6972 16.4697 12.7271 16.4738L13.8047 16.622C15.445 16.8475 16.8475 15.445 16.622 13.8047L16.4738 12.7271C16.4697 12.6972 16.482 12.6675 16.506 12.6493L17.3728 11.9921C18.6921 10.9917 18.6921 9.0083 17.3728 8.00791L16.506 7.35066C16.482 7.33247 16.4697 7.30274 16.4738 7.27291L16.622 6.19525C16.8475 4.55496 15.445 3.15249 13.8047 3.37802L12.7271 3.52619C12.6972 3.5303 12.6675 3.51798 12.6493 3.49399L11.9921 2.6272Z" fill="#777E91"/>
<path d="M12.2559 8.92259L8.92259 12.2559C8.59715 12.5814 8.06951 12.5814 7.74408 12.2559C7.41864 11.9305 7.41864 11.4028 7.74408 11.0774L11.0774 7.74408C11.4028 7.41864 11.9305 7.41864 12.2559 7.74408C12.5814 8.06951 12.5814 8.59715 12.2559 8.92259Z" fill="#777E91"/>
<path d="M9.16667 8.33333C9.16667 8.79357 8.79357 9.16667 8.33333 9.16667C7.8731 9.16667 7.5 8.79357 7.5 8.33333C7.5 7.8731 7.8731 7.5 8.33333 7.5C8.79357 7.5 9.16667 7.8731 9.16667 8.33333Z" fill="#777E91"/>
<path d="M10.8333 11.6667C10.8333 12.1269 11.2064 12.5 11.6667 12.5C12.1269 12.5 12.5 12.1269 12.5 11.6667C12.5 11.2064 12.1269 10.8333 11.6667 10.8333C11.2064 10.8333 10.8333 11.2064 10.8333 11.6667Z" fill="#777E91"/>
</svg>
