<svg width="36" height="36" viewBox="0 0 36 36" fill="none" xmlns="http://www.w3.org/2000/svg">
<circle cx="18" cy="18" r="18" fill="#40C3FF"/>
<path d="M29 12.1151C28.1819 12.474 27.3101 12.7119 26.4012 12.8274C27.3362 12.2691 28.0499 11.3919 28.3854 10.3345C27.5136 10.8543 26.5511 11.2214 25.5254 11.4263C24.6976 10.5449 23.5179 9.99902 22.2309 9.99902C19.7339 9.99902 17.7236 12.0258 17.7236 14.5104C17.7236 14.8679 17.7539 15.2116 17.8281 15.5389C14.0785 15.356 10.7606 13.5589 8.53175 10.8213C8.14262 11.4964 7.91437 12.2691 7.91437 13.101C7.91437 14.663 8.71875 16.0476 9.91775 16.8493C9.19312 16.8355 8.48225 16.6251 7.88 16.2938C7.88 16.3075 7.88 16.3254 7.88 16.3433C7.88 18.535 9.44337 20.3555 11.4935 20.7749C11.1264 20.8753 10.7262 20.9234 10.311 20.9234C10.0222 20.9234 9.73075 20.9069 9.45712 20.8464C10.0415 22.6325 11.6997 23.9456 13.6715 23.9882C12.137 25.1886 10.1886 25.9119 8.07937 25.9119C7.7095 25.9119 7.35475 25.8954 7 25.85C8.99787 27.1384 11.3656 27.874 13.919 27.874C22.2185 27.874 26.756 20.999 26.756 15.0398C26.756 14.8404 26.7491 14.6479 26.7395 14.4568C27.6346 13.8215 28.3867 13.0281 29 12.1151Z" fill="#F8F8FB"/>
</svg>
