<svg xmlns:xlink="http://www.w3.org/1999/xlink" width="32" height="32" viewBox="0 0 18 18" fill="none" xmlns="http://www.w3.org/2000/svg"><path d="M17.4086 1.95916L17.4085 1.95923L17.4153 1.96608C17.5927 2.14457 17.7441 2.48646 17.8521 2.85246C17.9026 3.02388 17.9382 3.18096 17.961 3.29512C17.9723 3.35192 17.9804 3.39739 17.9855 3.42784L17.9909 3.46161L17.9916 3.46624L17.9927 3.4754L17.9982 3.52213C18.0029 3.56345 18.0097 3.62459 18.018 3.70271C18.0344 3.85902 18.0565 4.08298 18.0785 4.3519C18.1227 4.89105 18.1665 5.60493 18.1665 6.31406V7.67812C18.1665 8.38903 18.1227 9.10292 18.0785 9.64158C18.0565 9.91025 18.0345 10.1339 18.018 10.2899C18.0098 10.3679 18.0029 10.4289 17.9982 10.4701L17.9927 10.5167L17.9916 10.5259L17.9909 10.5306L17.9855 10.5643C17.9804 10.5948 17.9723 10.6403 17.961 10.6971C17.9382 10.8112 17.9026 10.9683 17.8521 11.1397C17.7441 11.5057 17.5927 11.8476 17.4153 12.0261L17.4153 12.026L17.4086 12.033C16.9236 12.5404 16.4136 12.5925 16.0339 12.6313C15.9943 12.6353 15.9561 12.6392 15.9194 12.6435C14.6762 12.7316 13.1175 12.7778 11.863 12.8019C11.2349 12.8139 10.6852 12.8204 10.2925 12.8239C10.0962 12.8256 9.93924 12.8265 9.83146 12.8271L9.70792 12.8276L9.67614 12.8277L9.66814 12.8277L9.66772 12.8277L9.65776 12.8276L9.61855 12.8273L9.46806 12.8257C9.33764 12.8243 9.14962 12.8221 8.91945 12.819C8.45905 12.813 7.83037 12.8034 7.15693 12.7896C5.81513 12.7621 4.32309 12.718 3.61543 12.6528C3.51344 12.6341 3.40743 12.6203 3.29892 12.6062C2.84672 12.5474 2.35094 12.4829 1.92091 12.033L1.92096 12.033L1.91531 12.0273C1.73909 11.8487 1.58829 11.5066 1.48065 11.1402C1.43024 10.9687 1.3948 10.8115 1.37203 10.6973C1.3607 10.6404 1.35265 10.5949 1.34755 10.5644L1.34209 10.5306L1.34139 10.5259L1.34029 10.5168L1.33484 10.4701C1.3301 10.4287 1.32326 10.3676 1.31503 10.2895C1.29856 10.1332 1.27653 9.9092 1.25448 9.64029C1.21027 9.10114 1.1665 8.38725 1.1665 7.67812V6.31406C1.1665 5.6053 1.21111 4.8917 1.25617 4.35269C1.27865 4.08386 1.3011 3.85997 1.31789 3.70373C1.32628 3.62564 1.33325 3.56452 1.33808 3.52323L1.34363 3.47654L1.34491 3.46606L1.34577 3.46026L1.35112 3.42653C1.35614 3.39609 1.36406 3.35065 1.37525 3.29387C1.39775 3.17976 1.43285 3.02276 1.48299 2.85144C1.59009 2.48553 1.74074 2.14417 1.91768 1.96608L1.91775 1.96615L1.92442 1.95916C2.4094 1.45181 2.91939 1.39971 3.2991 1.36091C3.33887 1.35685 3.3772 1.35293 3.41393 1.34866C4.65664 1.25881 6.21409 1.21348 7.46776 1.19074C8.0953 1.17935 8.64452 1.17366 9.03677 1.17081C9.23287 1.16939 9.38967 1.16868 9.49733 1.16832L9.62072 1.16801L9.65246 1.16797L9.66043 1.16797L9.66239 1.16797L9.66286 1.16797H9.66297L9.66299 0.667969V1.16797H9.67002V0.667969L9.67004 1.16797H9.67015L9.67062 1.16797L9.67258 1.16797L9.68055 1.16797L9.71229 1.16801L9.83568 1.16832C9.94334 1.16868 10.1001 1.16939 10.2962 1.17081C10.6885 1.17366 11.2377 1.17935 11.8652 1.19074C13.1189 1.21348 14.6764 1.25881 15.9191 1.34866C15.9558 1.35293 15.9941 1.35685 16.0339 1.36091C16.4136 1.3997 16.9236 1.45181 17.4086 1.95916ZM7.30674 9.33398V10.1564L8.03687 9.77788L12.899 7.25717L13.7522 6.81482L12.9002 6.37005L8.03813 3.83176L7.30674 3.44994V4.275V9.33398ZM17.9922 3.47026C17.9922 3.47032 17.9922 3.47031 17.9922 3.47022L17.9922 3.47026Z" fill="#FFFFFF" stroke="#FFFFFF"></path></svg>